<mxfile host="65bd71144e">
    <diagram id="Vo2NpMT5riS7MNRIy5fc" name="Page-1">
        <mxGraphModel dx="856" dy="1834" grid="0" gridSize="10" guides="1" tooltips="1" connect="1" arrows="1" fold="1" page="0" pageScale="1" pageWidth="850" pageHeight="1100" background="#2B002B" math="0" shadow="1">
            <root>
                <mxCell id="0"/>
                <mxCell id="1" parent="0"/>
                <mxCell id="5" value="" style="edgeStyle=none;html=1;sketch=1;curved=1;" parent="1" source="2" target="4" edge="1">
                    <mxGeometry relative="1" as="geometry"/>
                </mxCell>
                <mxCell id="7" value="" style="edgeStyle=none;html=1;sketch=1;curved=1;" parent="1" source="2" target="6" edge="1">
                    <mxGeometry relative="1" as="geometry"/>
                </mxCell>
                <mxCell id="9" value="" style="edgeStyle=none;html=1;sketch=1;curved=1;" parent="1" source="2" target="8" edge="1">
                    <mxGeometry relative="1" as="geometry"/>
                </mxCell>
                <mxCell id="11" value="" style="edgeStyle=none;html=1;sketch=1;curved=1;" parent="1" source="2" target="10" edge="1">
                    <mxGeometry relative="1" as="geometry"/>
                </mxCell>
                <mxCell id="13" value="" style="edgeStyle=none;html=1;sketch=1;curved=1;" parent="1" source="2" target="12" edge="1">
                    <mxGeometry relative="1" as="geometry"/>
                </mxCell>
                <mxCell id="46" value="" style="edgeStyle=none;html=1;fontFamily=Verdana;sketch=1;curved=1;" parent="1" source="2" target="45" edge="1">
                    <mxGeometry relative="1" as="geometry"/>
                </mxCell>
                <mxCell id="57" value="" style="edgeStyle=none;curved=1;rounded=1;sketch=1;html=1;fontFamily=Verdana;fontSize=37;fontColor=#2B002B;" parent="1" source="2" target="56" edge="1">
                    <mxGeometry relative="1" as="geometry"/>
                </mxCell>
                <mxCell id="2" value="&lt;font color=&quot;#2b002b&quot;&gt;posts&lt;/font&gt;" style="rounded=1;whiteSpace=wrap;html=1;fillColor=#d5e8d4;strokeColor=#82b366;fontFamily=Verdana;sketch=1;gradientColor=#97d077;arcSize=50;" parent="1" vertex="1">
                    <mxGeometry x="160" y="-756" width="120" height="60" as="geometry"/>
                </mxCell>
                <mxCell id="4" value="Content" style="ellipse;whiteSpace=wrap;html=1;rounded=1;fillColor=#60a917;fontColor=#ffffff;strokeColor=#2D7600;sketch=1;" parent="1" vertex="1">
                    <mxGeometry x="280" y="-916" width="120" height="60" as="geometry"/>
                </mxCell>
                <mxCell id="6" value="published" style="ellipse;whiteSpace=wrap;html=1;rounded=1;fillColor=#d80073;fontColor=#ffffff;strokeColor=#A50040;sketch=1;" parent="1" vertex="1">
                    <mxGeometry x="340" y="-760" width="120" height="60" as="geometry"/>
                </mxCell>
                <mxCell id="8" value="post_id" style="ellipse;whiteSpace=wrap;html=1;rounded=1;fillColor=#0050ef;fontColor=#ffffff;strokeColor=#001DBC;sketch=1;" parent="1" vertex="1">
                    <mxGeometry x="10" y="-756" width="120" height="60" as="geometry"/>
                </mxCell>
                <mxCell id="10" value="&lt;font color=&quot;#ffffff&quot;&gt;rating&lt;/font&gt;" style="ellipse;whiteSpace=wrap;html=1;rounded=1;fillColor=#fa6800;fontColor=#000000;strokeColor=#C73500;sketch=1;" parent="1" vertex="1">
                    <mxGeometry x="260" y="-636" width="120" height="60" as="geometry"/>
                </mxCell>
                <mxCell id="12" value="&lt;font color=&quot;#ffffff&quot;&gt;user_id&lt;/font&gt;" style="ellipse;whiteSpace=wrap;html=1;rounded=1;fillColor=#e3c800;fontColor=#000000;strokeColor=#B09500;sketch=1;" parent="1" vertex="1">
                    <mxGeometry x="60" y="-636" width="120" height="60" as="geometry"/>
                </mxCell>
                <mxCell id="14" value="created_at" style="ellipse;whiteSpace=wrap;html=1;rounded=1;fillColor=#1ba1e2;fontColor=#ffffff;strokeColor=#006EAF;sketch=1;" parent="1" vertex="1">
                    <mxGeometry x="51" y="-888" width="120" height="60" as="geometry"/>
                </mxCell>
                <mxCell id="21" value="" style="edgeStyle=none;html=1;sketch=1;curved=1;entryX=0.5;entryY=1;entryDx=0;entryDy=0;" parent="1" edge="1" target="14">
                    <mxGeometry relative="1" as="geometry">
                        <mxPoint x="209.2190641968309" y="-746" as="sourcePoint"/>
                        <mxPoint x="159.37403765316822" y="-817.6070137841501" as="targetPoint"/>
                    </mxGeometry>
                </mxCell>
                <mxCell id="29" value="" style="edgeStyle=none;html=1;sketch=1;curved=1;" parent="1" source="35" target="36" edge="1">
                    <mxGeometry relative="1" as="geometry"/>
                </mxCell>
                <mxCell id="30" value="" style="edgeStyle=none;html=1;sketch=1;curved=1;" parent="1" source="35" target="37" edge="1">
                    <mxGeometry relative="1" as="geometry"/>
                </mxCell>
                <mxCell id="31" value="" style="edgeStyle=none;html=1;sketch=1;curved=1;" parent="1" source="35" target="38" edge="1">
                    <mxGeometry relative="1" as="geometry"/>
                </mxCell>
                <mxCell id="32" value="" style="edgeStyle=none;html=1;sketch=1;curved=1;" parent="1" source="35" target="39" edge="1">
                    <mxGeometry relative="1" as="geometry"/>
                </mxCell>
                <mxCell id="33" value="" style="edgeStyle=none;html=1;sketch=1;curved=1;" parent="1" source="35" target="40" edge="1">
                    <mxGeometry relative="1" as="geometry"/>
                </mxCell>
                <mxCell id="34" value="" style="edgeStyle=none;html=1;sketch=1;curved=1;" parent="1" source="35" target="41" edge="1">
                    <mxGeometry relative="1" as="geometry"/>
                </mxCell>
                <mxCell id="43" value="" style="edgeStyle=none;html=1;fontFamily=Verdana;sketch=1;curved=1;" parent="1" source="35" target="42" edge="1">
                    <mxGeometry relative="1" as="geometry"/>
                </mxCell>
                <mxCell id="59" style="edgeStyle=none;curved=1;rounded=1;sketch=1;html=1;exitX=0.5;exitY=0;exitDx=0;exitDy=0;entryX=1;entryY=0.5;entryDx=0;entryDy=0;fontFamily=Verdana;fontSize=16;fontColor=#FFFFFF;" parent="1" source="35" target="58" edge="1">
                    <mxGeometry relative="1" as="geometry">
                        <Array as="points">
                            <mxPoint x="626" y="-618"/>
                        </Array>
                    </mxGeometry>
                </mxCell>
                <mxCell id="62" value="" style="edgeStyle=none;curved=1;rounded=1;sketch=1;html=1;fontFamily=Verdana;fontSize=16;fontColor=#FFFFFF;" parent="1" source="35" target="61" edge="1">
                    <mxGeometry relative="1" as="geometry"/>
                </mxCell>
                <mxCell id="35" value="&lt;font color=&quot;#2b002b&quot;&gt;User&lt;/font&gt;" style="rounded=1;whiteSpace=wrap;html=1;fillColor=#f8cecc;strokeColor=#b85450;fontFamily=Verdana;sketch=1;arcSize=50;gradientColor=#ea6b66;" parent="1" vertex="1">
                    <mxGeometry x="540" y="-506" width="120" height="60" as="geometry"/>
                </mxCell>
                <mxCell id="36" value="username" style="ellipse;whiteSpace=wrap;html=1;rounded=1;fillColor=#60a917;fontColor=#ffffff;strokeColor=#2D7600;sketch=1;" parent="1" vertex="1">
                    <mxGeometry x="620" y="-596" width="120" height="60" as="geometry"/>
                </mxCell>
                <mxCell id="37" value="passowrd(hashed)" style="ellipse;whiteSpace=wrap;html=1;rounded=1;fillColor=#d80073;fontColor=#ffffff;strokeColor=#A50040;sketch=1;" parent="1" vertex="1">
                    <mxGeometry x="705" y="-506" width="120" height="60" as="geometry"/>
                </mxCell>
                <mxCell id="38" value="email" style="ellipse;whiteSpace=wrap;html=1;rounded=1;fillColor=#0050ef;fontColor=#ffffff;strokeColor=#001DBC;sketch=1;" parent="1" vertex="1">
                    <mxGeometry x="380" y="-516" width="120" height="60" as="geometry"/>
                </mxCell>
                <mxCell id="39" value="&lt;font color=&quot;#ffffff&quot;&gt;interests&lt;/font&gt;" style="ellipse;whiteSpace=wrap;html=1;rounded=1;fillColor=#fa6800;fontColor=#000000;strokeColor=#C73500;sketch=1;" parent="1" vertex="1">
                    <mxGeometry x="680" y="-416" width="120" height="60" as="geometry"/>
                </mxCell>
                <mxCell id="40" value="&lt;font color=&quot;#ffffff&quot;&gt;image&lt;/font&gt;" style="ellipse;whiteSpace=wrap;html=1;rounded=1;fillColor=#e3c800;fontColor=#000000;strokeColor=#B09500;sketch=1;" parent="1" vertex="1">
                    <mxGeometry x="415" y="-426" width="120" height="60" as="geometry"/>
                </mxCell>
                <mxCell id="41" value="full name" style="ellipse;whiteSpace=wrap;html=1;rounded=1;fillColor=#1ba1e2;fontColor=#ffffff;strokeColor=#006EAF;sketch=1;" parent="1" vertex="1">
                    <mxGeometry x="450" y="-596" width="120" height="60" as="geometry"/>
                </mxCell>
                <mxCell id="42" value="user_id" style="ellipse;whiteSpace=wrap;html=1;fontFamily=Verdana;fillColor=#6d8764;strokeColor=#3A5431;rounded=1;fontColor=#ffffff;sketch=1;" parent="1" vertex="1">
                    <mxGeometry x="540" y="-386" width="120" height="70" as="geometry"/>
                </mxCell>
                <mxCell id="45" value="&lt;font color=&quot;#ffffff&quot;&gt;tags&lt;/font&gt;" style="ellipse;whiteSpace=wrap;html=1;fontFamily=Verdana;fillColor=#fa6800;strokeColor=#C73500;rounded=1;fontColor=#000000;sketch=1;" parent="1" vertex="1">
                    <mxGeometry x="440" y="-876" width="120" height="60" as="geometry"/>
                </mxCell>
                <mxCell id="52" value="" style="edgeStyle=none;html=1;fontFamily=Verdana;fontSize=37;sketch=1;curved=1;" parent="1" source="47" target="51" edge="1">
                    <mxGeometry relative="1" as="geometry"/>
                </mxCell>
                <mxCell id="47" value="&lt;b&gt;&lt;font style=&quot;font-size: 37px&quot;&gt;LOGIN SETUP&amp;nbsp;&lt;/font&gt;&lt;/b&gt;" style="whiteSpace=wrap;html=1;aspect=fixed;fontFamily=Verdana;sketch=1;rounded=1;arcSize=50;" parent="1" vertex="1">
                    <mxGeometry x="863" y="-1090" width="348" height="348" as="geometry"/>
                </mxCell>
                <mxCell id="53" style="edgeStyle=none;html=1;entryX=1;entryY=0;entryDx=0;entryDy=0;fontFamily=Verdana;fontSize=37;sketch=1;curved=1;" parent="1" source="51" target="35" edge="1">
                    <mxGeometry relative="1" as="geometry"/>
                </mxCell>
                <mxCell id="51" value="login informations" style="whiteSpace=wrap;html=1;fontFamily=Verdana;sketch=1;rounded=1;arcSize=50;" parent="1" vertex="1">
                    <mxGeometry x="894" y="-661" width="296" height="60" as="geometry"/>
                </mxCell>
                <mxCell id="56" value="&lt;font color=&quot;#ffffff&quot;&gt;image&lt;/font&gt;" style="ellipse;whiteSpace=wrap;html=1;fontFamily=Verdana;fillColor=#fa6800;strokeColor=#C73500;rounded=1;sketch=1;arcSize=50;fontColor=#000000;" parent="1" vertex="1">
                    <mxGeometry x="160" y="-973" width="120" height="60" as="geometry"/>
                </mxCell>
                <mxCell id="60" style="edgeStyle=none;curved=1;rounded=1;sketch=1;html=1;exitX=0;exitY=0.5;exitDx=0;exitDy=0;entryX=1;entryY=1;entryDx=0;entryDy=0;fontFamily=Verdana;fontSize=16;fontColor=#FFFFFF;" parent="1" source="58" target="2" edge="1">
                    <mxGeometry relative="1" as="geometry">
                        <Array as="points">
                            <mxPoint x="393" y="-636"/>
                        </Array>
                    </mxGeometry>
                </mxCell>
                <mxCell id="58" value="&lt;font style=&quot;font-size: 16px&quot;&gt;&lt;b&gt;has&lt;/b&gt;&lt;/font&gt;" style="rhombus;whiteSpace=wrap;html=1;rounded=1;sketch=1;fontFamily=Verdana;fontSize=37;fontColor=#FFFFFF;" parent="1" vertex="1">
                    <mxGeometry x="455" y="-706" width="80" height="80" as="geometry"/>
                </mxCell>
                <mxCell id="61" value="bio" style="ellipse;whiteSpace=wrap;html=1;fontFamily=Verdana;fillColor=#cce5ff;strokeColor=#36393d;rounded=1;sketch=1;arcSize=50;" parent="1" vertex="1">
                    <mxGeometry x="426" y="-329" width="120" height="60" as="geometry"/>
                </mxCell>
            </root>
        </mxGraphModel>
    </diagram>
</mxfile>